Coordinates
version=1
nRows=40
nColumns=30
inDegrees=yes

Units are S.I. units (second, meters, Newtons, ...)
Angles are in degrees.

endheader
time	floatyaw	floatroll	floatpitch	floatx	floaty	floatz	pro_sup_l	deviation_l	flexion_l	cmc_flexion_l	cmc_abduction_l	mp_flexion_l	ip_flexion_l	2mcp_flexion_l	2mcp_abduction_l	2pm_flexion_l	2md_flexion_l	3mcp_flexion_l	3mcp_abduction_l	3pm_flexion_l	3md_flexion_l	4mcp_flexion_l	4mcp_abduction_l	4pm_flexion_l	4md_flexion_l	5mcp_flexion_l	5mcp_abduction_l	5pm_flexion_l	5md_flexion_l
-1.495000	3.029614	-4.103828	101.268469	-0.102905	-0.207598	-0.045909	86.830144	1.324269	0.574935	17.064319	0.242456	-22.375046	-35.489689	38.036562	8.517776	50.907296	34.039567	24.040251	4.535805	47.991665	29.848481	14.815560	-4.476268	61.200347	39.833158	9.361963	-9.591168	59.229409	39.909727
-1.485000	3.029614	-4.103828	101.268469	-0.102912	-0.207602	-0.045899	86.825168	1.311679	0.570335	17.045298	0.238361	-22.373423	-35.484739	38.042680	8.513291	50.891535	34.028658	24.050814	4.536640	47.986525	29.846945	14.835571	-4.480075	61.194482	39.823813	9.353164	-9.587410	59.229737	39.909475
-1.475000	3.029614	-4.103828	101.268469	-0.102914	-0.207614	-0.045896	86.821035	1.308288	0.558220	17.027256	0.222048	-22.369829	-35.478723	38.058358	8.504825	50.881942	34.018790	24.063687	4.535503	47.979003	29.842623	14.840754	-4.478462	61.191143	39.816282	9.360082	-9.595486	59.239577	39.911393
-1.465000	3.029614	-4.103828	101.268469	-0.102911	-0.207633	-0.045901	86.817636	1.313759	0.540426	17.008824	0.196576	-22.366291	-35.472718	38.079832	8.491029	50.879548	34.011583	24.074031	4.534218	47.972478	29.838644	14.832262	-4.472017	61.189371	39.811537	9.377729	-9.609104	59.255961	39.915301
-1.455000	3.029614	-4.103828	101.268469	-0.102907	-0.207653	-0.045911	86.812936	1.323052	0.522094	16.987985	0.168345	-22.364630	-35.467318	38.099563	8.472524	50.881807	34.007480	24.076356	4.534936	47.969452	29.837961	14.815630	-4.462425	61.187462	39.809665	9.400800	-9.622623	59.274178	39.920168
-1.445000	3.029614	-4.103828	101.268469	-0.102903	-0.207670	-0.045920	86.803819	1.329342	0.508987	16.962892	0.144106	-22.365884	-35.462535	38.109735	8.451559	50.883751	34.005449	24.066987	4.538833	47.970781	29.842263	14.796286	-4.451242	61.184257	39.810451	9.427613	-9.634959	59.289533	39.924217
-1.435000	3.029614	-4.103828	101.268469	-0.102903	-0.207682	-0.045926	86.788308	1.327968	0.504315	16.933156	0.128094	-22.370093	-35.458208	38.106382	8.431080	50.880509	34.003538	24.046695	4.545231	47.975782	29.851441	14.777035	-4.439440	61.180494	39.813983	9.459380	-9.648821	59.298790	39.925568
-1.425000	3.029614	-4.103828	101.268469	-0.102906	-0.207688	-0.045928	86.767495	1.318966	0.506931	16.900660	0.120504	-22.376380	-35.454418	38.091686	8.413749	50.869895	33.999954	24.021558	4.551806	47.983159	29.863834	14.759114	-4.428011	61.179378	39.820808	9.496521	-9.666510	59.300829	39.923048
-1.415000	3.029614	-4.103828	101.268469	-0.102910	-0.207693	-0.045928	86.745859	1.306872	0.512062	16.869090	0.117790	-22.383180	-35.451470	38.072954	8.401270	50.853677	33.994064	24.000884	4.555817	47.992244	29.877219	14.744950	-4.418809	61.185677	39.831530	9.535811	-9.686061	59.296612	39.916764
-1.405000	3.029614	-4.103828	101.268469	-0.102911	-0.207700	-0.045930	86.729939	1.298334	0.514175	16.842416	0.114264	-22.388523	-35.449346	38.058921	8.394131	50.836936	33.986813	23.992929	4.555581	48.003728	29.890011	14.739381	-4.414542	61.203485	39.846157	9.570697	-9.700738	59.288794	39.908229
-1.395000	3.029614	-4.103828	101.268469	-0.102908	-0.207709	-0.045935	86.726076	1.299030	0.510193	16.823257	0.103999	-22.390408	-35.447120	38.055656	8.391689	50.825811	33.980323	24.000798	4.551319	48.019240	29.901935	14.747797	-4.417624	61.233724	39.863620	9.594221	-9.702232	59.281090	39.900009
-1.385000	3.029614	-4.103828	101.268469	-0.102898	-0.207716	-0.045944	86.737874	1.311139	0.501143	16.812027	0.082463	-22.387433	-35.443027	38.064418	8.392510	50.824733	33.976853	24.020962	4.544935	48.039905	29.913715	14.772507	-4.428651	61.272836	39.881765	9.602118	-9.685489	59.277404	39.894969
-1.375000	3.029614	-4.103828	101.268469	-0.102884	-0.207718	-0.045956	86.764058	1.332114	0.491421	16.807135	0.048074	-22.379623	-35.435464	38.082179	8.394855	50.834406	33.977658	24.045252	4.538954	48.064936	29.926096	14.810258	-4.445615	61.313578	39.897849	9.594083	-9.652181	59.280708	39.895304
-1.365000	3.029614	-4.103828	101.268469	-0.102870	-0.207713	-0.045966	86.797918	1.355354	0.486306	16.806081	0.003624	-22.368979	-35.424383	38.103745	8.397157	50.851458	33.982358	24.065044	4.535238	48.091375	29.939007	14.852828	-4.464456	61.347689	39.909367	9.572830	-9.610577	59.291961	39.901696
-1.355000	3.029614	-4.103828	101.268469	-0.102861	-0.207700	-0.045971	86.829397	1.372954	0.489202	16.806786	-0.043600	-22.359165	-35.412039	38.123803	8.398328	50.869791	33.989090	24.075250	4.534145	48.115256	29.951404	14.890284	-4.480614	61.369089	39.914864	9.542112	-9.571595	59.309541	39.912957
-1.345000	3.029614	-4.103828	101.268469	-0.102859	-0.207684	-0.045969	86.849439	1.379539	0.500080	16.808335	-0.084265	-22.354257	-35.402362	38.138104	8.397809	50.882995	33.995284	24.076036	4.534522	48.133471	29.961820	14.914877	-4.490726	61.375892	39.914343	9.505145	-9.543174	59.329572	39.926368
-1.335000	3.029614	-4.103828	101.268469	-0.102864	-0.207669	-0.045963	86.854283	1.374991	0.515844	16.810669	-0.111410	-22.357118	-35.399160	38.144008	8.395408	50.886731	33.998647	24.071650	4.534522	48.145337	29.969271	14.923764	-4.493714	61.370295	39.909016	9.464098	-9.526202	59.347259	39.938688
-1.325000	3.029614	-4.103828	101.268469	-0.102875	-0.207658	-0.045955	86.846869	1.364151	0.532280	16.813720	-0.124019	-22.368206	-35.404248	38.140891	8.391116	50.880027	33.997904	24.067418	4.532794	48.153115	29.974015	14.919768	-4.490966	61.356845	39.900613	9.420400	-9.514565	59.358916	39.947491
-1.315000	3.029614	-4.103828	101.268469	-0.102891	-0.207652	-0.045952	86.834319	1.353539	0.546337	16.816899	-0.127164	-22.385373	-35.416647	38.130460	8.385112	50.864982	33.993008	24.066840	4.529315	48.161178	29.977661	14.910010	-4.485569	61.340394	39.890719	9.375473	-9.499576	59.363897	39.952235
-1.305000	3.029614	-4.103828	101.268469	-0.102909	-0.207647	-0.045955	86.823297	1.347322	0.557462	16.819283	-0.128640	-22.404691	-35.433202	38.116602	8.377935	50.845319	33.984834	24.070247	4.525368	48.174141	29.982464	14.902587	-4.480817	61.324809	39.880520	9.331773	-9.476364	59.365340	39.954436
-1.295000	3.029614	-4.103828	101.268469	-0.102927	-0.207642	-0.045963	86.816575	1.345348	0.567409	16.820029	-0.134564	-22.421946	-35.450082	38.104389	8.370543	50.824808	33.974674	24.075338	4.522710	48.194669	29.990124	14.902459	-4.478607	61.312585	39.870957	9.293603	-9.448031	59.368818	39.956668
-1.285000	3.029614	-4.103828	101.268469	-0.102942	-0.207632	-0.045972	86.812905	1.344401	0.578959	16.818383	-0.146819	-22.434251	-35.464274	38.098370	8.364039	50.806290	33.963870	24.078702	4.522462	48.221901	30.000745	14.908649	-4.478662	61.304986	39.863006	9.266584	-9.424423	59.379153	39.960832
-1.275000	3.029614	-4.103828	101.268469	-0.102953	-0.207618	-0.045979	86.809556	1.341356	0.594448	16.813345	-0.163585	-22.441199	-35.474485	38.100782	8.359144	50.791346	33.953658	24.077016	4.524476	48.251136	30.012531	14.914494	-4.479071	61.302280	39.857776	9.255458	-9.416252	59.397055	39.966704
-1.265000	3.029614	-4.103828	101.268469	-0.102962	-0.207598	-0.045982	86.805116	1.335708	0.614809	16.803543	-0.182007	-22.445083	-35.481270	38.110517	8.355782	50.780313	33.945108	24.067271	4.527567	48.275083	30.022418	14.910760	-4.477670	61.303860	39.856294	9.261744	-9.428934	59.417879	39.971707
-1.255000	3.029614	-4.103828	101.268469	-0.102971	-0.207574	-0.045981	86.800709	1.329904	0.639334	16.787693	-0.200801	-22.449899	-35.486485	38.123470	8.353038	50.772400	33.938944	24.046833	4.530363	48.286476	30.027370	14.889780	-4.473229	61.308289	39.859056	9.283244	-9.460342	59.433604	39.972090
-1.245000	3.029614	-4.103828	101.268469	-0.102982	-0.207548	-0.045978	86.799471	1.327735	0.665930	16.765450	-0.221044	-22.459405	-35.492286	38.134344	8.349523	50.765964	33.935221	24.014685	4.531950	48.281221	30.025716	14.848711	-4.465796	61.313468	39.865571	9.315542	-9.502998	59.437022	39.964866
-1.235000	3.029614	-4.103828	101.268469	-0.102995	-0.207521	-0.045973	86.805095	1.332142	0.691536	16.738076	-0.244916	-22.475101	-35.500070	38.139226	8.344024	50.759136	33.933111	23.973765	4.531803	48.260703	30.017922	14.790900	-4.456292	61.317162	39.874234	9.353786	-9.548016	59.425592	39.949447
-1.225000	3.029614	-4.103828	101.268469	-0.103007	-0.207495	-0.045966	86.820169	1.343624	0.712647	16.708497	-0.273650	-22.495262	-35.509837	38.137706	8.336222	50.750825	33.931182	23.932238	4.529275	48.231984	30.006504	14.725157	-4.445863	61.317929	39.882792	9.393217	-9.587918	59.402657	39.928120
-1.215000	3.029614	-4.103828	101.268469	-0.103014	-0.207473	-0.045956	86.844909	1.359949	0.726075	16.680699	-0.306343	-22.515697	-35.520342	38.133257	8.327030	50.741563	33.928154	23.901477	4.523436	48.205363	29.995131	14.663132	-4.435431	61.316046	39.889292	9.428754	-9.617506	59.375518	39.905126
-1.205000	3.029614	-4.103828	101.268469	-0.103015	-0.207455	-0.045940	86.876866	1.377204	0.729962	16.658678	-0.340483	-22.531855	-35.529925	38.131439	8.318161	50.733432	33.923596	23.891109	4.513640	48.190145	29.987174	14.615473	-4.425598	61.313687	39.892928	9.455160	-9.633825	59.351727	39.884860
-1.195000	3.029614	-4.103828	101.268469	-0.103009	-0.207444	-0.045920	86.911969	1.391722	0.724682	16.645172	-0.373677	-22.541081	-35.537507	38.136842	8.311131	50.728932	33.918041	23.904168	4.500323	48.190665	29.984253	14.588091	-4.416775	61.313856	39.894158	9.468633	-9.636332	59.335871	39.870084
-1.185000	3.029614	-4.103828	101.268469	-0.102998	-0.207440	-0.045897	86.946385	1.401828	0.713013	16.640577	-0.405119	-22.543720	-35.543121	38.150729	8.306457	50.729572	33.912499	23.935527	4.485231	48.204812	29.985601	14.580267	-4.409299	61.318546	39.894010	9.468865	-9.627278	59.328375	39.861015
-1.175000	3.029614	-4.103828	101.268469	-0.102987	-0.207439	-0.045875	86.977974	1.408310	0.699235	16.642542	-0.435508	-22.542548	-35.547704	38.171012	8.303706	50.735336	33.907908	23.974336	4.470835	48.225984	29.988809	14.585784	-4.403462	61.327414	39.893203	9.459672	-9.611408	59.326423	39.855651
-1.165000	3.029614	-4.103828	101.268469	-0.102980	-0.207441	-0.045856	87.006382	1.413220	0.687554	16.646718	-0.465345	-22.541075	-35.552430	38.194408	8.302237	50.745398	33.905030	24.008570	4.459439	48.247347	29.991726	14.596628	-4.399505	61.337994	39.891823	9.447250	-9.594449	59.325986	39.851087
-1.155000	3.029614	-4.103828	101.268469	-0.102977	-0.207441	-0.045841	87.032040	1.417898	0.680802	16.648582	-0.492963	-22.541773	-35.558074	38.218843	8.301917	50.759322	33.904729	24.029107	4.452619	48.265896	29.994372	14.607109	-4.397591	61.347199	39.889707	9.436964	-9.580932	59.323784	39.845135
-1.145000	3.029614	-4.103828	101.268469	-0.102975	-0.207437	-0.045829	87.055247	1.421768	0.680159	16.645645	-0.514060	-22.545146	-35.564790	38.244005	8.303325	50.777475	33.908105	24.031831	4.451069	48.283927	29.999525	14.615811	-4.397678	61.352926	39.887057	9.430843	-9.572643	59.318534	39.837457
-1.135000	3.029614	-4.103828	101.268469	-0.102972	-0.207427	-0.045813	87.076040	1.422793	0.685833	16.638947	-0.523336	-22.549888	-35.572308	38.269660	8.307368	50.800112	33.916067	24.017601	4.454608	48.307186	30.011417	14.624346	-4.399292	61.354764	39.884694	9.427597	-9.568814	59.311272	39.829633
-1.125000	3.029614	-4.103828	101.268469	-0.102962	-0.207408	-0.045790	87.094489	1.419006	0.697891	16.632844	-0.517319	-22.553799	-35.580269	38.293444	8.314585	50.825916	33.928547	23.990684	4.462182	48.340816	30.033216	14.634149	-4.401448	61.353697	39.883792	9.425324	-9.568152	59.304735	39.824103
-1.115000	3.029614	-4.103828	101.268469	-0.102946	-0.207380	-0.045760	87.110768	1.409813	0.716513	16.632894	-0.496845	-22.554874	-35.588343	38.310514	8.324518	50.851441	33.943991	23.956443	4.472037	48.385296	30.064665	14.643784	-4.402919	61.351355	39.885334	9.425096	-9.571434	59.301917	39.822505
-1.105000	3.029614	-4.103828	101.268469	-0.102928	-0.207344	-0.045724	87.124949	1.396166	0.741448	16.642831	-0.467988	-22.552024	-35.596072	38.315839	8.335565	50.872194	33.959618	23.919268	4.482257	48.434616	30.101233	14.648752	-4.402841	61.349370	39.889698	9.432708	-9.582645	59.304341	39.824359
